<svg version="1.1" viewBox="0.0 0.0 1024.0 1024.0" fill="none" stroke="none" stroke-linecap="square" stroke-miterlimit="10" xmlns:xlink="http://www.w3.org/1999/xlink" xmlns="http://www.w3.org/2000/svg"><clipPath id="p.0"><path d="m0 0l1024.0 0l0 1024.0l-1024.0 0l0 -1024.0z" clip-rule="nonzero"/></clipPath><g clip-path="url(#p.0)"><path fill="#b45f06" d="m0 0l1024.0 0l0 1024.0l-1024.0 0z" fill-rule="evenodd"/><path fill="#f9cb9c" d="m708.3298 378.75586l0 0c0 -2.1714783 1.760315 -3.9318237 3.9318237 -3.9318237l42.6875 0c1.0427856 0 2.0428467 0.4142456 2.7802124 1.1516113c0.7373657 0.7373657 1.1516113 1.7374268 1.1516113 2.7802124l0 15.726898c0 2.1714783 -1.760315 3.9318237 -3.9318237 3.9318237l-42.6875 0c-2.1715088 0 -3.9318237 -1.7603455 -3.9318237 -3.9318237z" fill-rule="evenodd"/><path fill="#f9cb9c" d="m310.4715 315.85297l0 0c0 -2.1714783 1.7603455 -3.9318237 3.9318237 -3.9318237l42.6875 0c1.0427856 0 2.0428772 0.4142456 2.780243 1.1516113c0.7373657 0.7373657 1.1516113 1.7374268 1.1516113 2.7802124l0 15.726898c0 2.1714783 -1.7603455 3.9318237 -3.9318542 3.9318237l-42.6875 0c-2.1714783 0 -3.9318237 -1.7603455 -3.9318237 -3.9318237z" fill-rule="evenodd"/><path fill="#f9cb9c" d="m278.94656 641.9632l0 0c0 -2.1714478 1.7603455 -3.9318237 3.9318237 -3.9318237l42.6875 0c1.0427856 0 2.0428772 0.4142456 2.780243 1.1516113c0.7373657 0.7373657 1.1516113 1.7374268 1.1516113 2.7802124l0 15.726929c0 2.1714478 -1.7603455 3.9318237 -3.9318542 3.9318237l-42.6875 0c-2.1714783 0 -3.9318237 -1.760376 -3.9318237 -3.9318237z" fill-rule="evenodd"/><path fill="#fce5cd" d="m301.65387 335.51166l420.4095 0l0 352.97638l-420.4095 0z" fill-rule="evenodd"/><path stroke="#e69138" stroke-width="12.21522309711286" stroke-linejoin="round" stroke-linecap="butt" d="m301.65387 335.51166l420.4095 0l0 352.97638l-420.4095 0z" fill-rule="evenodd"/><path fill="#f9cb9c" d="m657.77856 381.88187l0 0c0 -2.1715088 1.760376 -3.9318542 3.9318237 -3.9318542l42.6875 0c1.0428467 0 2.0429077 0.4142456 2.7802734 1.1516113c0.7373657 0.7373657 1.1516113 1.7374268 1.1516113 2.780243l0 15.726868c0 2.1714783 -1.760376 3.9318237 -3.9318848 3.9318237l-42.6875 0c-2.1714478 0 -3.9318237 -1.7603455 -3.9318237 -3.9318237z" fill-rule="evenodd"/><path fill="#f9cb9c" d="m625.0173 470.9038l0 0c0 -2.1715088 1.760376 -3.9318237 3.9318237 -3.9318237l42.68756 0c1.0427856 0 2.0428467 0.4142456 2.7802124 1.1515808c0.7373657 0.7373657 1.1516113 1.7374573 1.1516113 2.780243l0 15.726868c0 2.1715088 -1.760376 3.9318542 -3.9318237 3.9318542l-42.68756 0c-2.1714478 0 -3.9318237 -1.7603455 -3.9318237 -3.9318542z" fill-rule="evenodd"/><path fill="#f9cb9c" d="m352.37936 470.9038l0 0c0 -2.1715088 1.7603455 -3.9318237 3.9318542 -3.9318237l42.6875 0c1.0427856 0 2.0428772 0.4142456 2.7802124 1.1515808c0.7373657 0.7373657 1.1516113 1.7374573 1.1516113 2.780243l0 15.726868c0 2.1715088 -1.7603455 3.9318542 -3.9318237 3.9318542l-42.6875 0c-2.1715088 0 -3.9318542 -1.7603455 -3.9318542 -3.9318542z" fill-rule="evenodd"/><path fill="#f9cb9c" d="m460.32886 631.8818l0 0c0 -2.1715088 1.7603455 -3.9318237 3.9318542 -3.9318237l42.6875 0c1.0427856 0 2.0428467 0.4142456 2.7802124 1.1516113c0.7373657 0.7373657 1.1516113 1.7374268 1.1516113 2.7802124l0 15.726868c0 2.1715088 -1.7603455 3.9318848 -3.9318237 3.9318848l-42.6875 0c-2.1715088 0 -3.9318542 -1.760376 -3.9318542 -3.9318848z" fill-rule="evenodd"/><path fill="#f9cb9c" d="m494.4452 437.24496l0 0c0 -2.1715088 1.7603455 -3.9318237 3.9318237 -3.9318237l42.6875 0c1.0427856 0 2.0428467 0.4142456 2.7802124 1.1515808c0.7373657 0.7373657 1.1516113 1.7374573 1.1516113 2.780243l0 15.726868c0 2.1715088 -1.760315 3.9318542 -3.9318237 3.9318542l-42.6875 0c-2.1714783 0 -3.9318237 -1.7603455 -3.9318237 -3.9318542z" fill-rule="evenodd"/><path fill="#f9cb9c" d="m610.9378 607.8764l0 0c0 -2.1715088 1.760315 -3.9318237 3.9318237 -3.9318237l42.6875 0c1.0427856 0 2.0428467 0.4142456 2.7802124 1.1516113c0.7373657 0.7373657 1.1516113 1.7374268 1.1516113 2.7802124l0 15.726868c0 2.1715088 -1.760315 3.9318237 -3.9318237 3.9318237l-42.6875 0c-2.1715088 0 -3.9318237 -1.760315 -3.9318237 -3.9318237z" fill-rule="evenodd"/><path fill="#f9cb9c" d="m310.4736 618.37177l0 0c0 -2.1715088 1.7603455 -3.9318848 3.9318542 -3.9318848l42.6875 0c1.0427856 0 2.0428772 0.4142456 2.780243 1.1516113c0.7373657 0.7373657 1.1516113 1.7374878 1.1516113 2.7802734l0 15.726868c0 2.1715088 -1.7603455 3.9318237 -3.9318542 3.9318237l-42.6875 0c-2.1715088 0 -3.9318542 -1.760315 -3.9318542 -3.9318237z" fill-rule="evenodd"/><path fill="#783f04" d="m429.8743 411.18362l0 250.20474l-50.551178 0l0 -250.20474z" fill-rule="evenodd"/><path fill="#f9cb9c" d="m560.10406 357.87646l0 0c0 -2.1714783 1.760315 -3.9318237 3.9318237 -3.9318237l42.6875 0c1.0427856 0 2.0429077 0.4142456 2.7802734 1.1516113c0.7373657 0.7373657 1.1516113 1.7374268 1.1516113 2.7802124l0 15.726898c0 2.1714783 -1.760376 3.9318237 -3.9318848 3.9318237l-42.6875 0c-2.1715088 0 -3.9318237 -1.7603455 -3.9318237 -3.9318237z" fill-rule="evenodd"/><path fill="#f9cb9c" d="m380.03323 357.87646l0 0c0 -2.1714783 1.7603455 -3.9318237 3.9318542 -3.9318237l42.6875 0c1.0427856 0 2.0428467 0.4142456 2.7802124 1.1516113c0.7373657 0.7373657 1.1516113 1.7374268 1.1516113 2.7802124l0 15.726898c0 2.1714783 -1.7603455 3.9318237 -3.9318237 3.9318237l-42.6875 0c-2.1715088 0 -3.9318542 -1.7603455 -3.9318542 -3.9318237z" fill-rule="evenodd"/><path fill="#783f04" d="m321.9513 361.3451l208.09448 0l0 50.551178l-208.09448 0z" fill-rule="evenodd"/><path fill="#000000" fill-opacity="0.0" d="m415.15982 401.9594l184.50394 0l0 116.25195l-184.50394 0z" fill-rule="evenodd"/><path fill="#b45f06" d="m465.23795 498.07294l9.0625 0l0 -45.1875l-10.015625 0l0 31.984375q-0.59375 1.265625 -1.421875 2.296875q-0.828125 1.015625 -1.921875 1.765625q-1.296875 0.828125 -3.015625 1.3125q-1.703125 0.484375 -3.875 0.484375q-2.09375 0 -3.640625 -0.546875q-1.53125 -0.546875 -2.546875 -1.84375q-1.0 -1.25 -1.46875 -3.359375q-0.453125 -2.109375 -0.453125 -5.234375l0 -26.859375l-9.96875 0l0 26.765625q0 5.09375 1.125 8.75q1.125 3.65625 3.171875 6.0q2.09375 2.328125 4.984375 3.4375q2.90625 1.109375 6.421875 1.109375q4.09375 0 7.390625 -1.890625q3.296875 -1.90625 5.59375 -5.296875l0.578125 6.3125zm41.389587 -7.1875q-3.125 0 -5.21875 -1.25q-2.09375 -1.25 -3.296875 -3.34375q-1.25 -2.0 -1.78125 -4.640625q-0.515625 -2.65625 -0.515625 -5.421875l0 -1.453125q0 -2.71875 0.515625 -5.34375q0.53125 -2.640625 1.828125 -4.6875q1.203125 -2.046875 3.265625 -3.3125q2.078125 -1.28125 5.203125 -1.28125q2.046875 0 3.8125 0.71875q1.7812805 0.703125 3.0781555 1.90625q1.25 1.21875 1.9375 2.84375q0.703125 1.625 0.703125 3.46875l9.390625 0q0.046875 -3.765625 -1.359375 -6.890625q-1.390625 -3.125 -3.90625 -5.390625q-2.5 -2.25 -6.0 -3.5q-3.4844055 -1.25 -7.5625305 -1.25q-5.1875 0 -9.09375 1.8125q-3.90625 1.8125 -6.53125 4.90625q-2.625 3.09375 -3.953125 7.234375q-1.3125 4.125 -1.3125 8.765625l0 1.453125q0 4.671875 1.328125 8.796875q1.34375 4.109375 3.984375 7.203125q2.578125 3.09375 6.484375 4.90625q3.90625 1.8125 9.125 1.8125q3.765625 0 7.1562805 -1.234375q3.40625 -1.234375 6.046875 -3.40625q2.59375 -2.078125 4.109375 -4.984375q1.53125 -2.90625 1.484375 -6.203125l-9.390625 0q0 1.71875 -0.78125 3.140625q-0.765625 1.40625 -2.0625 2.453125q-1.3437805 1.046875 -3.0781555 1.609375q-1.734375 0.5625 -3.609375 0.5625zm47.202118 -12.484375l14.40625 19.671875l12.359375 0l-20.125 -26.359375l17.578125 -18.828125l-12.03125 0l-13.484375 14.203125l-4.140625 4.59375l0 -37.765625l-10.015625 0l0 64.15625l10.015625 0l0 -14.53125l5.4375 -5.140625z" fill-rule="nonzero"/><path fill="#000000" fill-opacity="0.0" d="m460.3303 479.4393l262.01578 0l0 182.67715l-262.01578 0z" fill-rule="evenodd"/><path fill="#b45f06" d="m483.3928 614.65454l31.078156 0q6.65625 0 12.359375 -1.6875q5.703125 -1.703125 9.828125 -5.03125q4.140625 -3.265625 6.46875 -8.140625q2.34375 -4.875 2.296875 -11.28125q0 -3.640625 -1.03125 -6.9375q-1.015625 -3.296875 -2.984375 -6.015625q-1.90625 -2.515625 -4.75 -4.515625q-2.828125 -2.015625 -6.84375 -3.0625l0 -0.125q2.71875 -1.109375 4.78125 -2.484375q2.0625 -1.390625 3.734375 -3.25q2.34375 -2.53125 3.59375 -5.828125q1.265625 -3.296875 1.328125 -7.109375q0 -6.296875 -2.375 -10.890625q-2.359375 -4.59375 -6.5625 -7.546875q-4.1875 -2.96875 -9.921875 -4.40625q-5.734375 -1.453125 -12.265625 -1.453125l-28.734406 0l0 89.765625zm14.921875 -40.5625l17.015656 0q3.640625 0.0625 6.46875 1.078125q2.84375 1.015625 4.8125 2.859375q1.96875 1.859375 2.953125 4.484375q1.0 2.609375 1.0 6.0q0 3.203125 -1.203125 5.828125q-1.203125 2.625 -3.421875 4.40625q-2.046875 1.71875 -4.9375 2.71875q-2.890625 0.984375 -6.40625 0.984375l-16.28128 0l0 -28.359375zm0 -11.28125l0 -25.65625l14.0000305 0q3.8125 0.0625 6.953125 0.90625q3.15625 0.828125 5.25 2.671875q1.84375 1.484375 2.859375 3.796875q1.015625 2.3125 1.015625 5.453125q0 2.953125 -1.109375 5.234375q-1.109375 2.28125 -3.015625 3.890625q-2.09375 1.78125 -5.15625 2.71875q-3.046875 0.921875 -6.671875 0.984375l-14.1250305 0zm58.631073 17.875l0 1.296875q0 7.328125 2.09375 13.5q2.09375 6.15625 6.109375 10.71875q3.9375 4.5625 9.734375 7.15625q5.796875 2.59375 13.140625 2.59375q7.265625 0 13.03125 -2.59375q5.765625 -2.59375 9.71875 -7.15625q3.9375 -4.5625 6.03125 -10.71875q2.109375 -6.171875 2.109375 -13.5l0 -1.296875q0 -7.28125 -2.109375 -13.46875q-2.09375 -6.203125 -6.03125 -10.765625q-4.015625 -4.5625 -9.78125 -7.140625q-5.765625 -2.59375 -13.09375 -2.59375q-7.34375 0 -13.078125 2.59375q-5.734375 2.578125 -9.671875 7.140625q-4.015625 4.5625 -6.109375 10.765625q-2.09375 6.1875 -2.09375 13.46875zm14.734375 1.296875l0 -1.296875q0 -4.375 0.953125 -8.375q0.953125 -4.015625 3.0 -7.046875q1.96875 -3.015625 5.015625 -4.796875q3.046875 -1.796875 7.25 -1.796875q4.25 0 7.296875 1.796875q3.0625 1.78125 5.09375 4.796875q1.90625 3.03125 2.890625 7.046875q0.984375 4.0 0.984375 8.375l0 1.296875q0 4.5 -0.953125 8.515625q-0.953125 4.0 -2.921875 7.015625q-1.96875 3.015625 -5.0625 4.78125q-3.078125 1.75 -7.203125 1.75q-4.265625 0 -7.34375 -1.75q-3.078125 -1.765625 -5.046875 -4.78125q-2.046875 -3.015625 -3.0 -7.015625q-0.953125 -4.015625 -0.953125 -8.515625zm93.03735 -11.59375l-15.78125 -22.4375l-16.21875 0l23.359375 32.859375l-24.15625 33.84375l16.328125 0l16.59375 -23.3125l16.640625 23.3125l16.28125 0l-24.171875 -33.84375l23.421875 -32.859375l-16.328125 0l-15.96875 22.4375z" fill-rule="nonzero"/><path fill="#f9cb9c" d="m809.51086 129.85298l0 0c0 -2.1714935 1.760315 -3.931839 3.9318237 -3.931839l42.6875 0c1.0427856 0 2.0429077 0.4142456 2.7802124 1.1516113c0.7373657 0.7373581 1.1516113 1.737442 1.1516113 2.7802277l0 15.726883c0 2.1714935 -1.760315 3.9318237 -3.9318237 3.9318237l-42.6875 0c-2.1715088 0 -3.9318237 -1.7603302 -3.9318237 -3.9318237z" fill-rule="evenodd"/><path fill="#f9cb9c" d="m222.45049 63.383163l0 0c0 -2.1714935 1.7603455 -3.9318352 3.931839 -3.9318352l42.6875 0c1.0427856 0 2.0428772 0.4142456 2.780243 1.1516075c0.7373657 0.7373619 1.1516113 1.737442 1.1516113 2.7802277l0 15.726875c0 2.1714935 -1.7603455 3.931839 -3.9318542 3.931839l-42.6875 0c-2.1714935 0 -3.931839 -1.7603455 -3.931839 -3.931839z" fill-rule="evenodd"/><path fill="#f9cb9c" d="m97.56597 655.4724l0 0c0 -2.1715088 1.7603455 -3.9318237 3.931839 -3.9318237l42.687508 0c1.0427856 0 2.042862 0.4142456 2.7802277 1.1516113c0.7373657 0.7373657 1.1516113 1.7374268 1.1516113 2.7802124l0 15.726868c0 2.1715088 -1.7603455 3.9318237 -3.931839 3.9318237l-42.687508 0c-2.1714935 0 -3.931839 -1.760315 -3.931839 -3.9318237z" fill-rule="evenodd"/><path fill="#f9cb9c" d="m380.03317 885.72174l0 0c0 -2.1715088 1.7603455 -3.9318237 3.9318237 -3.9318237l42.6875 0c1.0428162 0 2.0428772 0.4142456 2.780243 1.1516113c0.7373657 0.7373657 1.1516113 1.7374268 1.1516113 2.7802124l0 15.726868c0 2.1715088 -1.7603455 3.9318237 -3.9318542 3.9318237l-42.6875 0c-2.1714783 0 -3.9318237 -1.760315 -3.9318237 -3.9318237z" fill-rule="evenodd"/><path fill="#f9cb9c" d="m940.51874 961.8556l0 0c0 -2.1715088 1.760315 -3.9318237 3.9318237 -3.9318237l42.6875 0c1.0427856 0 2.0429077 0.4142456 2.7802124 1.1516113c0.7373657 0.7373657 1.1516113 1.7374268 1.1516113 2.7802124l0 15.726868c0 2.1715088 -1.760315 3.9318848 -3.9318237 3.9318848l-42.6875 0c-2.1715088 0 -3.9318237 -1.760376 -3.9318237 -3.9318848z" fill-rule="evenodd"/><path fill="#f9cb9c" d="m758.95966 816.3517l0 0c0 -2.1715088 1.760376 -3.9318237 3.9318848 -3.9318237l42.6875 0c1.0427856 0 2.0428467 0.4142456 2.7802124 1.1515503c0.7373657 0.7373657 1.1516113 1.7374878 1.1516113 2.7802734l0 15.726868c0 2.1715088 -1.760376 3.9318237 -3.9318237 3.9318237l-42.6875 0c-2.1715088 0 -3.9318848 -1.760315 -3.9318848 -3.9318237z" fill-rule="evenodd"/><path fill="#f9cb9c" d="m878.02 692.4199l0 0c0 -2.1715088 1.760376 -3.9318237 3.9318848 -3.9318237l42.6875 0c1.0427856 0 2.0428467 0.4142456 2.7802124 1.1516113c0.7373657 0.7373047 1.1516113 1.7374268 1.1516113 2.7802124l0 15.726868c0 2.1715088 -1.760376 3.9318237 -3.9318237 3.9318237l-42.6875 0c-2.1715088 0 -3.9318848 -1.760315 -3.9318848 -3.9318237z" fill-rule="evenodd"/><path fill="#f9cb9c" d="m112.274635 267.62726l0 0c0 -2.1714783 1.7603455 -3.9318237 3.931839 -3.9318237l42.687508 0c1.0427856 0 2.042862 0.4142456 2.7802277 1.1516113c0.7373657 0.7373352 1.1516113 1.7374268 1.1516113 2.7802124l0 15.726868c0 2.1715088 -1.7603455 3.9318542 -3.931839 3.9318542l-42.687508 0c-2.1714935 0 -3.931839 -1.7603455 -3.931839 -3.9318542z" fill-rule="evenodd"/><path fill="#f9cb9c" d="m625.0174 196.00522l0 0c0 -2.1714935 1.760376 -3.931839 3.9318848 -3.931839l42.6875 0c1.0427856 0 2.0428467 0.4142456 2.7802124 1.1516113c0.7373657 0.73735046 1.1516113 1.7374268 1.1516113 2.7802277l0 15.726868c0 2.1714935 -1.760376 3.931839 -3.9318237 3.931839l-42.6875 0c-2.1715088 0 -3.9318848 -1.7603455 -3.9318848 -3.931839z" fill-rule="evenodd"/><path fill="#f9cb9c" d="m900.2484 253.23619l0 0c0 -2.1714935 1.760315 -3.931839 3.9318237 -3.931839l42.6875 0c1.0427856 0 2.0428467 0.4142456 2.7802124 1.1515961c0.7373657 0.7373657 1.1516113 1.737442 1.1516113 2.780243l0 15.726883c0 2.1714783 -1.760315 3.9318237 -3.9318237 3.9318237l-42.6875 0c-2.1715088 0 -3.9318237 -1.7603455 -3.9318237 -3.9318237z" fill-rule="evenodd"/><path fill="#f9cb9c" d="m836.06464 378.75586l0 0c0 -2.1714783 1.760376 -3.9318237 3.9318848 -3.9318237l42.6875 0c1.0427856 0 2.0428467 0.4142456 2.7802124 1.1516113c0.7373657 0.7373657 1.1516113 1.7374268 1.1516113 2.7802124l0 15.726898c0 2.1714783 -1.760315 3.9318237 -3.9318237 3.9318237l-42.6875 0c-2.1715088 0 -3.9318848 -1.7603455 -3.9318848 -3.9318237z" fill-rule="evenodd"/><path fill="#f9cb9c" d="m849.77856 573.88184l0 0c0 -2.1714478 1.760376 -3.9318237 3.9318237 -3.9318237l42.6875 0c1.0428467 0 2.0429077 0.4142456 2.7802734 1.1516113c0.7373657 0.7373657 1.1516113 1.7374268 1.1516113 2.7802124l0 15.726868c0 2.1715088 -1.760376 3.9318848 -3.9318848 3.9318848l-42.6875 0c-2.1714478 0 -3.9318237 -1.760376 -3.9318237 -3.9318848z" fill-rule="evenodd"/><path fill="#f9cb9c" d="m511.99905 767.9501l0 0c0 -2.1714478 1.7603455 -3.9318237 3.9318542 -3.9318237l42.6875 0c1.0427856 0 2.0428467 0.4142456 2.7802124 1.1516113c0.7373657 0.7373657 1.1516113 1.7374268 1.1516113 2.7802124l0 15.726868c0 2.1715088 -1.760376 3.9318848 -3.9318237 3.9318848l-42.6875 0c-2.1715088 0 -3.9318542 -1.760376 -3.9318542 -3.9318848z" fill-rule="evenodd"/><path fill="#f9cb9c" d="m61.723454 816.3517l0 0c0 -2.1715088 1.7603455 -3.9318237 3.9318352 -3.9318237l42.687508 0c1.0427933 0 2.0428696 0.4142456 2.7802277 1.1515503c0.7373657 0.7373657 1.1516113 1.7374878 1.1516113 2.7802734l0 15.726868c0 2.1715088 -1.7603455 3.9318237 -3.931839 3.9318237l-42.687508 0c-2.1714897 0 -3.9318352 -1.760315 -3.9318352 -3.9318237z" fill-rule="evenodd"/><path fill="#f9cb9c" d="m625.0174 946.0708l0 0c0 -2.1714478 1.760376 -3.9318237 3.9318848 -3.9318237l42.6875 0c1.0427856 0 2.0428467 0.4142456 2.7802124 1.1516113c0.7373657 0.7373657 1.1516113 1.7374268 1.1516113 2.7802124l0 15.726929c0 2.1714478 -1.760376 3.9318237 -3.9318237 3.9318237l-42.6875 0c-2.1715088 0 -3.9318848 -1.760376 -3.9318848 -3.9318237z" fill-rule="evenodd"/><path fill="#f9cb9c" d="m251.10141 791.54065l0 0c0 -2.1715088 1.7603455 -3.9318237 3.931839 -3.9318237l42.687515 0c1.0427856 0 2.0428467 0.4142456 2.7802124 1.1516113c0.7373657 0.7373657 1.1516113 1.7374268 1.1516113 2.7802124l0 15.726868c0 2.1715088 -1.7603455 3.9318237 -3.9318237 3.9318237l-42.687515 0c-2.1714935 0 -3.931839 -1.760315 -3.931839 -3.9318237z" fill-rule="evenodd"/><path fill="#f9cb9c" d="m148.11716 946.0708l0 0c0 -2.1714478 1.7603455 -3.9318237 3.931839 -3.9318237l42.6875 0c1.0427856 0 2.042862 0.4142456 2.7802277 1.1516113c0.7373657 0.7373657 1.1516113 1.7374268 1.1516113 2.7802124l0 15.726929c0 2.1714478 -1.7603455 3.9318237 -3.931839 3.9318237l-42.6875 0c-2.1714935 0 -3.931839 -1.760376 -3.931839 -3.9318237z" fill-rule="evenodd"/><path fill="#f9cb9c" d="m400.72083 122.55115l0 0c0 -2.1714935 1.7603455 -3.931839 3.9318542 -3.931839l42.6875 0c1.0427856 0 2.0428467 0.4142456 2.7802124 1.1516037c0.7373657 0.7373657 1.1516113 1.737442 1.1516113 2.7802353l0 15.726868c0 2.1714935 -1.7603455 3.931839 -3.9318237 3.931839l-42.6875 0c-2.1715088 0 -3.9318542 -1.7603455 -3.9318542 -3.931839z" fill-rule="evenodd"/><path fill="#f9cb9c" d="m208.59747 528.42255l0 0c0 -2.1715088 1.7603455 -3.9318237 3.931839 -3.9318237l42.6875 0c1.0428009 0 2.042862 0.4142456 2.7802277 1.1516113c0.7373657 0.7373047 1.1516113 1.7374268 1.1516113 2.7802124l0 15.726868c0 2.1715088 -1.7603455 3.9318237 -3.931839 3.9318237l-42.6875 0c-2.1714935 0 -3.931839 -1.760315 -3.931839 -3.9318237z" fill-rule="evenodd"/><path fill="#f9cb9c" d="m30.447865 381.88187l0 0c0 -2.1715088 1.7603416 -3.9318542 3.9318352 -3.9318542l42.687508 0c1.0427856 0 2.0428696 0.4142456 2.7802277 1.1516113c0.7373657 0.7373657 1.1516113 1.7374268 1.1516113 2.780243l0 15.726868c0 2.1714783 -1.7603455 3.9318237 -3.931839 3.9318237l-42.687508 0c-2.1714935 0 -3.9318352 -1.7603455 -3.9318352 -3.9318237z" fill-rule="evenodd"/><path fill="#f9cb9c" d="m574.46625 16.244057l0 0c0 -2.1714926 1.760315 -3.9318361 3.9318237 -3.9318361l42.6875 0c1.0427856 0 2.0428467 0.4142456 2.7802124 1.1516085c0.7373657 0.7373619 1.1516113 1.7374401 1.1516113 2.7802277l0 15.726877c0 2.1714954 -1.760315 3.931837 -3.9318237 3.931837l-42.6875 0c-2.1715088 0 -3.9318237 -1.7603416 -3.9318237 -3.931837z" fill-rule="evenodd"/><path fill="#f9cb9c" d="m30.447865 71.761116l0 0c0 -2.1714935 1.7603416 -3.931839 3.9318352 -3.931839l42.687508 0c1.0427856 0 2.0428696 0.41425323 2.7802277 1.1516113c0.7373657 0.7373657 1.1516113 1.737442 1.1516113 2.7802277l0 15.726875c0 2.1714935 -1.7603455 3.931839 -3.931839 3.931839l-42.687508 0c-2.1714935 0 -3.9318352 -1.7603455 -3.9318352 -3.931839z" fill-rule="evenodd"/><path fill="#f9cb9c" d="m451.272 219.59576l0 0c0 -2.1714935 1.7603455 -3.931839 3.9318542 -3.931839l42.6875 0c1.0427856 0 2.0428772 0.4142456 2.7802124 1.1516113c0.7373657 0.7373657 1.1516113 1.737442 1.1516113 2.7802277l0 15.726883c0 2.1714935 -1.7603455 3.9318237 -3.9318237 3.9318237l-42.6875 0c-2.1715088 0 -3.9318542 -1.7603302 -3.9318542 -3.9318237z" fill-rule="evenodd"/></g></svg>