<svg version="1.1" viewBox="0.0 0.0 160.0 160.0" fill="none" stroke="none" stroke-linecap="square" stroke-miterlimit="10" xmlns:xlink="http://www.w3.org/1999/xlink" xmlns="http://www.w3.org/2000/svg"><clipPath id="p.0"><path d="m0 0l160.0 0l0 160.0l-160.0 0l0 -160.0z" clip-rule="nonzero"/></clipPath><g clip-path="url(#p.0)"><path fill="#000000" fill-opacity="0.0" d="m0 0l160.0 0l0 160.0l-160.0 0z" fill-rule="evenodd"/><path fill="#fce5cd" d="m11.005088 22.15748l137.98425 0l0 115.685036l-137.98425 0z" fill-rule="evenodd"/><path stroke="#e69138" stroke-width="4.010498687664042" stroke-linejoin="round" stroke-linecap="butt" d="m11.005088 22.15748l137.98425 0l0 115.685036l-137.98425 0z" fill-rule="evenodd"/><path fill="#f9cb9c" d="m127.86937 37.39631l0 0c0 -0.7247963 0.5875702 -1.3123627 1.3123627 -1.3123627l13.721725 0c0.34806824 0 0.6818695 0.13826752 0.9279938 0.38438416c0.24610901 0.24611282 0.3843689 0.5799179 0.3843689 0.9279785l0 5.2492905c0 0.7248001 -0.58755493 1.3123627 -1.3123627 1.3123627l-13.721725 0c-0.7247925 0 -1.3123627 -0.58756256 -1.3123627 -1.3123627z" fill-rule="evenodd"/><path fill="#f9cb9c" d="m117.11857 66.60953l0 0c0 -0.7248001 0.5875702 -1.3123627 1.3123627 -1.3123627l13.721733 0c0.34806824 0 0.6818695 0.13826752 0.9279785 0.38438416c0.24612427 0.24610901 0.38438416 0.5799179 0.38438416 0.9279785l0 5.2492905c0 0.7248001 -0.5875702 1.3123627 -1.3123627 1.3123627l-13.721733 0c-0.7247925 0 -1.3123627 -0.58756256 -1.3123627 -1.3123627z" fill-rule="evenodd"/><path fill="#f9cb9c" d="m27.650934 66.60953l0 0c0 -0.7248001 0.58756447 -1.3123627 1.3123627 -1.3123627l13.721731 0c0.3480606 0 0.6818657 0.13826752 0.92798233 0.38438416c0.24611282 0.24610901 0.38438034 0.5799179 0.38438034 0.9279785l0 5.2492905c0 0.7248001 -0.5875664 1.3123627 -1.3123627 1.3123627l-13.721731 0c-0.7247982 0 -1.3123627 -0.58756256 -1.3123627 -1.3123627z" fill-rule="evenodd"/><path fill="#f9cb9c" d="m63.075157 119.43564l0 0c0 -0.7247925 0.58756256 -1.312355 1.3123627 -1.312355l13.721733 0c0.3480606 0 0.6818619 0.13825989 0.9279785 0.38437653c0.24611664 0.24611664 0.38438416 0.57992554 0.38438416 0.9279785l0 5.249298c0 0.7247925 -0.5875702 1.3123627 -1.3123627 1.3123627l-13.721733 0c-0.7248001 0 -1.3123627 -0.5875702 -1.3123627 -1.3123627z" fill-rule="evenodd"/><path fill="#f9cb9c" d="m74.270615 55.564125l0 0c0 -0.7247963 0.58756256 -1.3123627 1.3123627 -1.3123627l13.721733 0c0.3480606 0 0.6818619 0.13826752 0.9279785 0.38438416c0.24611664 0.24611282 0.38438416 0.5799179 0.38438416 0.9279785l0 5.2492905c0 0.7248001 -0.58756256 1.3123627 -1.3123627 1.3123627l-13.721733 0c-0.7248001 0 -1.3123627 -0.58756256 -1.3123627 -1.3123627z" fill-rule="evenodd"/><path fill="#f9cb9c" d="m112.49831 111.5581l0 0c0 -0.7248001 0.58756256 -1.3123627 1.3123627 -1.3123627l13.721733 0c0.3480606 0 0.6818619 0.13826752 0.92798615 0.38438416c0.24610901 0.24611664 0.3843689 0.5799179 0.3843689 0.9279785l0 5.2492905c0 0.7248001 -0.58755493 1.3123627 -1.312355 1.3123627l-13.721733 0c-0.7248001 0 -1.3123627 -0.58756256 -1.3123627 -1.3123627z" fill-rule="evenodd"/><path fill="#f9cb9c" d="m13.899331 115.00222l0 0c0 -0.7247925 0.58756447 -1.3123627 1.3123617 -1.3123627l13.721733 0c0.3480587 0 0.6818638 0.13826752 0.9279804 0.38438416c0.24611473 0.24611664 0.38438225 0.5799179 0.38438225 0.9279785l0 5.2492905c0 0.7248001 -0.5875664 1.3123627 -1.3123627 1.3123627l-13.721733 0c-0.72479725 0 -1.3123617 -0.58756256 -1.3123617 -1.3123627z" fill-rule="evenodd"/><path fill="#783f04" d="m53.08133 46.9898l0 82.362206l-16.346458 0l0 -82.362206z" fill-rule="evenodd"/><path fill="#f9cb9c" d="m95.81694 29.518764l0 0c0 -0.7247982 0.58756256 -1.3123627 1.3123627 -1.3123627l13.721733 0c0.3480606 0 0.6818619 0.13826752 0.9279785 0.38438225c0.24611664 0.24611664 0.38438416 0.5799198 0.38438416 0.9279804l0 5.2492905c0 0.7248001 -0.58756256 1.3123627 -1.3123627 1.3123627l-13.721733 0c-0.7248001 0 -1.3123627 -0.58756256 -1.3123627 -1.3123627z" fill-rule="evenodd"/><path fill="#f9cb9c" d="m36.7257 29.518764l0 0c0 -0.7247982 0.5875664 -1.3123627 1.3123627 -1.3123627l13.721733 0c0.3480606 0 0.6818657 0.13826752 0.9279785 0.38438225c0.24611664 0.24611664 0.38438416 0.5799198 0.38438416 0.9279804l0 5.2492905c0 0.7248001 -0.5875664 1.3123627 -1.3123627 1.3123627l-13.721733 0c-0.7247963 0 -1.3123627 -0.58756256 -1.3123627 -1.3123627z" fill-rule="evenodd"/><path fill="#783f04" d="m17.665794 30.634918l68.40945 0l0 16.346455l-68.40945 0z" fill-rule="evenodd"/><path fill="#000000" fill-opacity="0.0" d="m48.25268 43.962807l60.472446 0l0 38.173225l-60.472446 0z" fill-rule="evenodd"/><path fill="#b45f06" d="m64.096436 74.90885l2.96875 0l0 -14.828125l-3.2812538 0l0 10.5q-0.203125 0.40625 -0.484375 0.75q-0.265625 0.328125 -0.625 0.578125q-0.421875 0.265625 -0.984375 0.4375q-0.5625 0.15625 -1.265625 0.15625q-0.6875 0 -1.203125 -0.171875q-0.5 -0.1875 -0.828125 -0.609375q-0.328125 -0.421875 -0.484375 -1.109375q-0.140625 -0.6875 -0.140625 -1.71875l0 -8.8125l-3.28125 0l0 8.78125q0 1.671875 0.359375 2.875q0.375 1.203125 1.046875 1.96875q0.6875 0.765625 1.640625 1.125q0.953125 0.359375 2.109375 0.359375q1.34375 0 2.421875 -0.609375q1.078125 -0.625 1.828125 -1.734375l0.20312881 2.0625zm13.5746155 -2.359375q-1.03125 0 -1.71875 -0.40625q-0.671875 -0.40625 -1.078125 -1.09375q-0.40625 -0.65625 -0.578125 -1.53125q-0.171875 -0.875 -0.171875 -1.78125l0 -0.46875q0 -0.890625 0.171875 -1.75q0.171875 -0.875 0.59375 -1.546875q0.390625 -0.671875 1.0625 -1.078125q0.6875 -0.421875 1.71875 -0.421875q0.671875 0 1.25 0.234375q0.578125 0.234375 1.015625 0.625q0.40625 0.390625 0.625 0.9375q0.234375 0.53125 0.234375 1.125l3.078125 0q0.015625 -1.234375 -0.453125 -2.25q-0.453125 -1.03125 -1.265625 -1.765625q-0.828125 -0.75 -1.96875 -1.15625q-1.140625 -0.40625 -2.484375 -0.40625q-1.703125 0 -2.984375 0.59375q-1.28125 0.59375 -2.140625 1.609375q-0.875 1.015625 -1.3125 2.375q-0.421875 1.34375 -0.421875 2.875l0 0.46875q0 1.546875 0.4375 2.890625q0.4375 1.34375 1.3125 2.359375q0.84375 1.015625 2.125 1.609375q1.28125 0.59375 3.0 0.59375q1.234375 0 2.34375 -0.390625q1.109375 -0.40625 1.984375 -1.125q0.84375 -0.6875 1.34375 -1.640625q0.5 -0.953125 0.484375 -2.03125l-3.078125 0q0 0.5625 -0.265625 1.03125q-0.25 0.46875 -0.671875 0.8125q-0.4375 0.328125 -1.015625 0.515625q-0.5625 0.1875 -1.171875 0.1875zm15.4808655 -4.09375l4.734375 6.453125l4.046875 0l-6.59375 -8.640625l5.765625 -6.1875l-3.953125 0l-4.421875 4.65625l-1.359375 1.515625l0 -12.390625l-3.28125 0l0 21.046875l3.28125 0l0 -4.765625l1.78125 -1.6875z" fill-rule="nonzero"/><path fill="#000000" fill-opacity="0.0" d="m63.073643 69.390396l85.921265 0l0 59.93701l-85.921265 0z" fill-rule="evenodd"/><path fill="#b45f06" d="m70.0424 113.16793l10.203125 0q2.171875 0 4.046875 -0.546875q1.875 -0.5625 3.234375 -1.65625q1.34375 -1.078125 2.109375 -2.671875q0.78125 -1.59375 0.75 -3.703125q0 -1.1875 -0.328125 -2.265625q-0.328125 -1.09375 -0.984375 -1.984375q-0.625 -0.828125 -1.5625 -1.484375q-0.921875 -0.65625 -2.234375 -1.0l0 -0.03125q0.890625 -0.375 1.5625 -0.828125q0.6875 -0.453125 1.234375 -1.0625q0.765625 -0.828125 1.171875 -1.90625q0.421875 -1.078125 0.4375 -2.34375q0 -2.0625 -0.78125 -3.5625q-0.765625 -1.515625 -2.15625 -2.484375q-1.375 -0.96875 -3.25 -1.4375q-1.875 -0.484375 -4.03125 -0.484375l-9.421875 0l0 29.453125zm4.90625 -13.3125l5.578125 0q1.1875 0.03125 2.109375 0.359375q0.9375 0.328125 1.59375 0.9375q0.640625 0.609375 0.96875 1.46875q0.328125 0.859375 0.328125 1.96875q0 1.046875 -0.40625 1.90625q-0.390625 0.859375 -1.125 1.453125q-0.65625 0.5625 -1.609375 0.890625q-0.953125 0.328125 -2.109375 0.328125l-5.328125 0l0 -9.3125zm0 -3.703125l0 -8.40625l4.578125 0q1.265625 0.015625 2.296875 0.296875q1.03125 0.265625 1.71875 0.875q0.609375 0.484375 0.9375 1.25q0.328125 0.75 0.328125 1.78125q0 0.96875 -0.359375 1.71875q-0.359375 0.75 -1.0 1.28125q-0.6875 0.578125 -1.6875 0.890625q-1.0 0.296875 -2.1875 0.3125l-4.625 0zm19.232178 5.875l0 0.421875q0 2.40625 0.6875 4.4375q0.6875 2.015625 2.0 3.515625q1.296875 1.484375 3.1875 2.34375q1.90625 0.84375 4.3125 0.84375q2.390625 0 4.28125 -0.84375q1.890625 -0.859375 3.1875 -2.34375q1.296875 -1.5 1.984375 -3.515625q0.6875 -2.03125 0.6875 -4.4375l0 -0.421875q0 -2.390625 -0.6875 -4.421875q-0.6875 -2.03125 -1.984375 -3.53125q-1.3125 -1.5 -3.203125 -2.34375q-1.890625 -0.84375 -4.3125 -0.84375q-2.40625 0 -4.28125 0.84375q-1.875 0.84375 -3.171875 2.34375q-1.3125 1.5 -2.0 3.53125q-0.6875 2.03125 -0.6875 4.421875zm4.828125 0.421875l0 -0.421875q0 -1.4375 0.3125 -2.75q0.3125 -1.3125 0.984375 -2.3125q0.640625 -0.984375 1.640625 -1.5625q1.0 -0.59375 2.375 -0.59375q1.40625 0 2.40625 0.59375q1.0 0.578125 1.671875 1.5625q0.625 1.0 0.9375 2.3125q0.328125 1.3125 0.328125 2.75l0 0.421875q0 1.46875 -0.3125 2.796875q-0.3125 1.3125 -0.953125 2.296875q-0.65625 1.0 -1.671875 1.578125q-1.0 0.5625 -2.359375 0.5625q-1.390625 0 -2.40625 -0.5625q-1.015625 -0.578125 -1.65625 -1.578125q-0.671875 -0.984375 -0.984375 -2.296875q-0.3125 -1.328125 -0.3125 -2.796875zm30.51342 -3.796875l-5.1718674 -7.375l-5.3125 0l7.65625 10.78125l-7.921875 11.109375l5.359375 0l5.4374924 -7.640625l5.46875 7.640625l5.328125 0l-7.921875 -11.109375l7.6875 -10.78125l-5.359375 0l-5.25 7.375z" fill-rule="nonzero"/></g></svg>